<?xml version="1.0" encoding="utf-8"?>
<!-- Generator: Adobe Illustrator 25.3.0, SVG Export Plug-In . SVG Version: 6.00 Build 0)  -->
<svg version="1.1" id="Calque_1" xmlns="http://www.w3.org/2000/svg" xmlns:xlink="http://www.w3.org/1999/xlink" x="200px" y="200px"
	 viewBox="0 0 2436 1125" style="enable-background:new 0 0 2436 1125;" xml:space="preserve">
<style type="text/css">
	.st0{fill:#FF6B00;}
	.st1{fill:#0C77F7;}
	.st2{font-family:'BebasNeue-Regular';}
	.st3{font-size:164.6938px;}
	.st4{letter-spacing:65;}
</style>
<g>
	<path class="st0" d="M1619.6,232.09c0,17.36,0,32.76,0,50.46c-6.25,0.39-12.5,1.12-18.75,1.12
		c-140.77,0.03-281.55-0.01-422.32-0.07c-44.77-0.02-83.4,14.47-111.42,50.41c-29.03,37.25-35.88,79.01-16.43,122.58
		c19.75,44.24,55.36,73,103.24,74.88c96.48,3.78,193.16,2.4,289.76,2.9c51.89,0.27,103.8,0.52,155.68-0.28
		c15.85-0.24,22.29,3.69,21.28,20.89c-1.92,32.56,5.33,30.43-31.01,30.45c-137.79,0.07-275.58-0.21-413.37,0.09
		c-67.33,0.14-122.86-24.81-161.06-80.31c-62.74-91.16-25.64-213.15,77.82-255.94c25.18-10.41,53.91-16.69,81.1-17.01
		c142.54-1.71,285.12-0.91,427.68-0.94C1607.1,231.31,1612.39,231.76,1619.6,232.09z"/>
	<path class="st1" d="M625.41,586.55c-164.39,0-324.94,0-489.66,0c108.88-119.22,215.51-235.99,323.02-353.72
		c107.63,117.8,214.33,234.6,323.85,354.47c-24.91,0-46.08,0.72-67.13-0.5c-5.3-0.31-11.08-6.04-15.23-10.56
		c-70.61-76.85-140.99-153.92-211.45-230.91c-9.22-10.07-18.58-20.01-29.79-32.07c-66.31,72.42-131.67,143.79-200.45,218.9
		c11.49,1,18.63,2.16,25.76,2.17c91.24,0.11,182.47,0.38,273.7-0.3c15.2-0.11,25.9,4.02,35.06,16.16
		C602.22,562.26,613.18,572.95,625.41,586.55z"/>
	<path class="st1" d="M1719.94,436.43c0,50.66,0,99.9,0,150.02c-18.61,0-35.1,0-53.27,0c0-117.3,0-234.46,0-353.31
		c16.34,0,33.24,0,52.2,0c0.35,5.67,1.08,11.99,1.09,18.31c0.05,36.98,0.91,74.01-0.54,110.93c-0.7,17.86,5.66,22,22.3,21.95
		c143.69-0.51,287.38-0.29,431.08-0.3c17.29,0,34.62-0.72,51.86,0.15c15.13,0.77,21.1-4.06,20.61-20.25
		c-1.12-36.95-0.35-73.96-0.35-110.94c0-6.41,0-12.81,0-18.15c3-1.66,3.98-2.63,5.02-2.71c49.92-3.68,49.92-3.67,49.92,45.94
		c0.01,96.64-0.35,193.27,0.38,289.9c0.12,16.03-4.68,21.38-20.27,19.62c-10.53-1.19-21.3-0.23-35.05-0.23c0-14.03,0-26.86,0-39.7
		c0-31.02-0.66-62.06,0.28-93.05c0.44-14.72-4.35-20.01-19.22-19.79c-44.71,0.65-89.43,0.18-134.15,0.17
		c-114.48-0.01-228.95-0.03-343.43,0.05C1739.6,435.07,1730.79,435.89,1719.94,436.43z"/>
	<path class="st1" d="M540.58,232.46c8.03-0.46,12.56-0.95,17.1-0.95c97.2-0.04,194.4-0.05,291.6,0
		c34.31,0.02,61.89,13.71,84.02,40.04c25.48,30.3,28.22,63.92,13.76,98.73c-15.3,36.84-43.88,59.2-84.04,63.4
		c-19.7,2.06-39.8,0.36-59.71,0.36c-0.48,2-0.96,3.99-1.44,5.99c40.78,47.87,81.55,95.73,125.41,147.22
		c-22.54,0-41.16,0.33-59.75-0.3c-3.46-0.12-7.48-3.46-10.09-6.35c-57.89-64.06-115.62-128.27-176.07-195.44
		c9.31-0.5,15.39-1.09,21.46-1.1c47.11-0.08,94.23,0.59,141.32-0.47c12.6-0.28,26.24-3.52,37.36-9.32
		c16.77-8.75,26.67-24.12,24.65-44.12c-1.95-19.34-12.48-33.7-30.76-40.32c-10.38-3.76-21.93-5.9-32.97-5.97
		c-78.12-0.5-156.24-0.79-234.35,0.14c-16.61,0.2-28.17-4.36-37.92-17.46C561.8,255.34,551.86,245.33,540.58,232.46z"/>
	<path class="st1" d="M1452.49,409.64c0,18.49,0.34,37-0.08,55.48c-0.64,28.11-21.43,49.93-49.75,50.56
		c-37.55,0.85-75.15,0.93-112.69-0.03c-28.08-0.71-49.49-22.2-50.24-50.5c-1-37.56-1.1-75.19,0.01-112.74
		c0.84-28.43,22.49-48.9,50.94-49.39c36.96-0.63,73.95-0.62,110.91-0.01c29.6,0.49,49.95,21.41,50.67,51.14
		c0.45,18.48,0.08,36.99,0.08,55.48C1452.38,409.64,1452.44,409.64,1452.49,409.64z M1327.99,509.96c0.84-1.2,1.69-2.4,2.53-3.6
		c-20.94-16.32-21.9-38.64-21.2-61.77c0.54-17.83-0.18-35.69,0.01-53.53c0.12-10.55-4.34-14.54-15.08-14.5
		c-26.64,0.08-47.66,18.67-49.51,46.07c-0.96,14.21-0.88,28.58-0.03,42.8c1.38,23.13,16.88,41.23,39.37,44.17
		C1298.49,511.49,1313.34,509.96,1327.99,509.96z M1446.42,427.53c-16.97,15.58-35.13,18.9-54.98,18.37
		c-16.04-0.43-32.11,0.28-48.17,0.06c-30.16-0.42-39.53,13.9-22.47,39.6c7.35,11.08,21.94,20.43,35,23.85
		c15.58,4.07,33.12,1.97,49.66,0.66c20.43-1.62,38.16-17.42,40.58-36.92C1447.91,458.16,1446.42,442.75,1446.42,427.53z
		 M1377.63,369.04c3.78-39.75-15.08-60.89-53.49-61c-10.71-0.03-21.41-0.19-32.11,0.04c-23.55,0.5-42.14,14.02-45.93,36.82
		c-2.53,15.2-0.48,31.16-0.48,50C1285.17,354.55,1333.83,379.49,1377.63,369.04z M1358.58,308.43
		c22.16,19.14,26.43,39.19,25.44,61.62c-0.86,19.57-0.81,39.24,0.34,58.77c0.25,4.33,6.32,11.31,10.5,11.95
		c26.2,4,51.12-17.34,52.08-43.88c0.56-15.43,0.58-30.91-0.03-46.33c-0.81-20.44-17.36-39.77-37.21-41.82
		C1394.63,307.18,1379.27,308.43,1358.58,308.43z M1378.72,441c0-19.81,0.66-36.43-0.48-52.92c-0.27-3.95-6.11-10.1-10.16-10.8
		c-47.61-8.21-60.1,3.83-53.58,51.57c0.6,4.4,6.02,11.35,9.58,11.59C1341.65,441.65,1359.35,441,1378.72,441z"/>
	<text transform="matrix(1 0 0 1 318.2075 861.3294)" class="st0 st2 st3 st4">SAVE AND SECURE</text>
</g>
</svg>
